<svg xmlns="http://www.w3.org/2000/svg" width="1060" height="180" viewBox="0 0 1060 180" role="img">
<rect width="100%" height="100%" fill="white"/>
<text x="24" y="32" font-family="Inter, ui-sans-serif, system-ui, -apple-system, BlinkMacSystemFont, Segoe UI, sans-serif" font-size="18" font-weight="700" fill="#111827">Compiler workbench pipeline</text>
<rect x="24" y="70" width="142" height="76" rx="8" fill="#f9fafb" stroke="#e5e7eb"/>
<text x="38" y="100" font-family="Inter, ui-sans-serif, system-ui, -apple-system, BlinkMacSystemFont, Segoe UI, sans-serif" font-size="15" font-weight="700" fill="#111827">Export</text>
<text x="38" y="124" font-family="Inter, ui-sans-serif, system-ui" font-size="11" fill="#6b7280">standard ONNX graph</text>
<path d="M166 108 L194 108" stroke="#6b7280" stroke-width="2"/>
<path d="M194 108 l-7 -5 v10 z" fill="#6b7280"/>
<rect x="194" y="70" width="142" height="76" rx="8" fill="#f9fafb" stroke="#e5e7eb"/>
<text x="208" y="100" font-family="Inter, ui-sans-serif, system-ui, -apple-system, BlinkMacSystemFont, Segoe UI, sans-serif" font-size="15" font-weight="700" fill="#111827">Analyze</text>
<text x="208" y="124" font-family="Inter, ui-sans-serif, system-ui" font-size="11" fill="#6b7280">patterns + opportunities</text>
<path d="M336 108 L364 108" stroke="#6b7280" stroke-width="2"/>
<path d="M364 108 l-7 -5 v10 z" fill="#6b7280"/>
<rect x="364" y="70" width="142" height="76" rx="8" fill="#f9fafb" stroke="#e5e7eb"/>
<text x="378" y="100" font-family="Inter, ui-sans-serif, system-ui, -apple-system, BlinkMacSystemFont, Segoe UI, sans-serif" font-size="15" font-weight="700" fill="#111827">ORT</text>
<text x="378" y="124" font-family="Inter, ui-sans-serif, system-ui" font-size="11" fill="#6b7280">offline optimized graph</text>
<path d="M506 108 L534 108" stroke="#6b7280" stroke-width="2"/>
<path d="M534 108 l-7 -5 v10 z" fill="#6b7280"/>
<rect x="534" y="70" width="142" height="76" rx="8" fill="#f9fafb" stroke="#e5e7eb"/>
<text x="548" y="100" font-family="Inter, ui-sans-serif, system-ui, -apple-system, BlinkMacSystemFont, Segoe UI, sans-serif" font-size="15" font-weight="700" fill="#111827">Rewrite</text>
<text x="548" y="124" font-family="Inter, ui-sans-serif, system-ui" font-size="11" fill="#6b7280">safe custom passes</text>
<path d="M676 108 L704 108" stroke="#6b7280" stroke-width="2"/>
<path d="M704 108 l-7 -5 v10 z" fill="#6b7280"/>
<rect x="704" y="70" width="142" height="76" rx="8" fill="#f9fafb" stroke="#e5e7eb"/>
<text x="718" y="100" font-family="Inter, ui-sans-serif, system-ui, -apple-system, BlinkMacSystemFont, Segoe UI, sans-serif" font-size="15" font-weight="700" fill="#111827">Validate</text>
<text x="718" y="124" font-family="Inter, ui-sans-serif, system-ui" font-size="11" fill="#6b7280">checker + parity</text>
<path d="M846 108 L874 108" stroke="#6b7280" stroke-width="2"/>
<path d="M874 108 l-7 -5 v10 z" fill="#6b7280"/>
<rect x="874" y="70" width="142" height="76" rx="8" fill="#f9fafb" stroke="#e5e7eb"/>
<text x="888" y="100" font-family="Inter, ui-sans-serif, system-ui, -apple-system, BlinkMacSystemFont, Segoe UI, sans-serif" font-size="15" font-weight="700" fill="#111827">Lower</text>
<text x="888" y="124" font-family="Inter, ui-sans-serif, system-ui" font-size="11" fill="#6b7280">optional ONNX-MLIR</text>
</svg>
